HIERARCHY
ROOT Hips
{
  OFFSET 0 0 0
  CHANNELS 6 Xposition Yposition Zposition Zrotation Yrotation Xrotation
  JOINT LeftThigh
  {
    OFFSET 8.409438 0 -5.917753
    CHANNELS 3 Zrotation Yrotation Xrotation
    JOINT LeftLeg
    {
      OFFSET 0 0 -42.358652
      CHANNELS 3 Zrotation Yrotation Xrotation
      JOINT LeftFoot
      {
        OFFSET 0 0 -39.357303
        CHANNELS 3 Zrotation Yrotation Xrotation
      }
    }
  }
  JOINT RightThigh
  {
    OFFSET -8.409438 0 -5.917753
    CHANNELS 3 Zrotation Yrotation Xrotation
    JOINT RightLeg
    {
      OFFSET 0 0 -42.358652
      CHANNELS 3 Zrotation Yrotation Xrotation
      JOINT RightFoot
      {
        OFFSET 0 0 -39.357303
        CHANNELS 3 Zrotation Yrotation Xrotation
      }
    }
  }
  JOINT SpineLow
  {
    OFFSET 0 0 4.719101
    CHANNELS 3 Zrotation Yrotation Xrotation
    JOINT SpineMid
    {
      OFFSET 0 0 12.899191
      CHANNELS 3 Zrotation Yrotation Xrotation
      JOINT Chest
      {
        OFFSET 0 0 12.899191
        CHANNELS 3 Zrotation Yrotation Xrotation
        JOINT LeftShoulder
        {
          OFFSET 7.550562 1.41573 9.438202
          CHANNELS 3 Zrotation Yrotation Xrotation
          JOINT LeftArm
          {
            OFFSET 9.155056 0 4.247191
            CHANNELS 3 Zrotation Yrotation Xrotation
            JOINT LeftForearm
            {
              OFFSET 0 0 25.771955
              CHANNELS 3 Zrotation Yrotation Xrotation
              JOINT LeftHand
              {
                OFFSET 0 0 25.197169
                CHANNELS 3 Zrotation Yrotation Xrotation
              }
            }
          }
        }
        JOINT RightShoulder
        {
          OFFSET -7.550562 1.41573 9.438202
          CHANNELS 3 Zrotation Yrotation Xrotation
          JOINT RightArm
          {
            OFFSET -9.155056 0 4.247191
            CHANNELS 3 Zrotation Yrotation Xrotation
            JOINT RightForearm
            {
              OFFSET 0 0 -25.771955
              CHANNELS 3 Zrotation Yrotation Xrotation
              JOINT RightHand
              {
                OFFSET 0 0 -25.197169
                CHANNELS 3 Zrotation Yrotation Xrotation
              }
            }
          }
        }
        JOINT Neck
        {
          OFFSET 0 0 15.101124
          CHANNELS 3 Zrotation Yrotation Xrotation
          JOINT Head
          {
            OFFSET 0 0 11.325843
            CHANNELS 3 Zrotation Yrotation Xrotation
            End Site
            {
              OFFSET 0 0 14.157303
            }
          }
        }
      }
    }
  }
}
MOTION
Frames: 5
Frame Time: 0.0
0.0  89.887642  0.0  2.185205  23.192163  -93.7661  17.724852  -47.583599  0.689761  -14.208574  50.823955  36.072612  5.31139  2.362732  -0.719085  -32.49246  -4.327035  -42.647978  20.550695  12.544268  73.572314  -5.471844  0.78401  -0.154439  -1.11319  0.248931  0.853311  -3.033685  0.719433  2.320499  -3.033685  0.719433  2.320499  -7.554621  19.08586  6.50078  140.870128  42.882838  -144.939576  -23.017954  -6.910658  60.899722  80.240944  7.409826  15.526828  7.21923  -3.323507  17.967517  10.621676  59.135481  -26.084284  -21.5435  -6.908974  -83.695002  64.163221  -5.628527  -7.396242  -19.288759  0.54076  3.816688  -14.47051  0.285388  2.882982  
0.0  89.887642  0.0  2.210933  23.63383  -93.828222  15.295589  -47.43238  1.828191  -12.464589  50.973892  35.963716  5.409597  2.432838  -0.390855  -31.168918  -3.06162  -42.49417  19.702263  12.776645  73.207174  -5.421983  0.695828  -0.323263  -1.276666  0.199076  0.884735  -3.481904  0.590586  2.407111  -3.481904  0.590586  2.407111  -7.354633  19.021624  6.210374  140.958301  42.167977  -145.176244  -23.549943  -6.849364  61.094844  80.699202  7.109959  15.950097  7.157386  -3.60629  18.003821  12.908641  59.671803  -24.730932  -22.338603  -6.287122  -83.447891  64.78081  -5.037156  -8.24051  -18.800717  0.873087  3.969521  -14.10664  0.533259  3.007336  
0.0  89.887642  0.0  2.301678  24.048172  -93.760449  12.197308  -46.515007  3.077907  -9.499271  50.799517  37.620436  5.36154  2.284312  -0.877857  -29.544091  -2.049156  -42.234705  18.799883  13.215361  72.678252  -5.353665  0.558988  -0.454442  -1.432259  0.126187  0.832449  -3.910103  0.394016  2.267052  -3.910103  0.394016  2.267052  -6.86851  19.216465  6.293507  140.628429  41.378065  -145.488684  -23.34603  -7.141654  61.27601  80.773906  6.820217  16.354399  7.025744  -3.558225  18.711841  14.463333  60.407037  -23.734363  -23.689444  -5.385988  -83.101214  65.701107  -4.310934  -9.189125  -18.46421  1.15716  4.183321  -13.856371  0.742262  3.175807  
0.0  89.887642  0.0  2.325086  24.367821  -93.676626  9.511044  -45.885204  4.063259  -7.388022  51.202815  38.582532  5.877076  1.880492  -1.223456  -27.919561  -1.413619  -41.847187  18.0149  13.570968  72.029969  -5.327991  0.524656  -0.548576  -1.574119  0.056883  0.724237  -4.300562  0.202513  1.97497  -4.300562  0.202513  1.97497  -6.519666  19.626988  6.620582  138.905983  40.432548  -145.553894  -23.545775  -9.085678  60.465339  80.342997  6.621868  16.927213  7.14306  -3.265608  19.62984  15.600446  60.769018  -22.760372  -25.207651  -4.471572  -82.667929  66.750405  -3.72997  -10.04732  -18.23757  1.335332  4.519794  -13.688316  0.867528  3.433194  
0.0  89.887642  0.0  2.191332  24.586636  -93.714057  7.534068  -45.760058  4.855537  -6.341142  51.623022  38.693041  6.489329  1.725564  -1.289338  -26.704849  -1.143142  -41.404517  17.619025  13.675102  71.351169  -5.513977  0.487201  -0.557463  -1.669219  0.011554  0.671909  -4.561919  0.077916  1.834793  -4.561919  0.077916  1.834793  -6.625467  19.864715  6.823927  138.677603  39.784372  -145.888751  -23.85784  -9.527418  60.577129  80.452865  6.546076  17.920199  7.042043  -2.868803  20.06302  16.946957  60.455694  -21.705337  -26.441737  -3.712586  -82.241405  67.632919  -3.35095  -11.000158  -18.229096  1.21724  4.730068  -13.681695  0.772642  3.587536  
